<svg xmlns="http://www.w3.org/2000/svg" viewBox="0 0 64 64">
  <defs>
    <linearGradient id="g" x1="0" y1="0" x2="0" y2="1">
      <stop offset="0%" stop-color="#feeb75"/>
      <stop offset="100%" stop-color="#f5cd00"/>
    </linearGradient>
  </defs>
  <rect width="64" height="64" rx="12" fill="#0b1113"/>
  <path d="M32 10c-9.9 0-18 7.8-18 17.4 0 6 3.2 10.6 7.6 14.2 2.1 1.7 3.4 4.1 3.4 6.7V50h14v-1.7c0-2.6 1.2-5 3.3-6.7 4.5-3.6 7.7-8.2 7.7-14.2C50 17.8 41.9 10 32 10z" fill="url(#g)"/>
  <rect x="25" y="50" width="14" height="5" rx="2" fill="#9ca3af"/>
  <rect x="26" y="56" width="12" height="4" rx="2" fill="#6b7280"/>
  <circle cx="32" cy="27" r="5" fill="#fff7cc" opacity=".7"/>
</svg>
